<?xml version="1.0" encoding="utf-8"?><svg xmlns="http://www.w3.org/2000/svg" xmlns:xlink="http://www.w3.org/1999/xlink"><symbol viewBox="0 0 24 24" fill="none" id="align-justify-svgrepo-com" xmlns="http://www.w3.org/2000/svg"><path d="M3 10h18M3 14h18M3 18h18M3 6h18" stroke="currentColor" stroke-width="2" stroke-linecap="round" stroke-linejoin="round"/></symbol><symbol viewBox="0 0 24 24" fill="none" id="circle-check-svgrepo-com" xmlns="http://www.w3.org/2000/svg"><path d="M8 12.333 10.461 15 16 9m5 3a9 9 0 1 1-18 0 9 9 0 0 1 18 0Z" stroke="currentColor" stroke-width="2" stroke-linecap="round" stroke-linejoin="round"/></symbol><symbol viewBox="0 0 24 24" fill="none" id="circle-pause-svgrepo-com" xmlns="http://www.w3.org/2000/svg"><path d="M9.5 9v6m5-6v6m6.5-3a9 9 0 1 1-18 0 9 9 0 0 1 18 0Z" stroke="currentColor" stroke-width="2" stroke-linecap="round" stroke-linejoin="round"/></symbol><symbol viewBox="0 0 24 24" fill="none" id="clapperboard-play-svgrepo-com" xmlns="http://www.w3.org/2000/svg"><path d="M3 9h6.5M21 9H9.5m0 0 5-5m0 0h3.3c1.047 0 1.604 0 2.022.178M14.5 4H6.2c-1.12 0-1.68 0-2.108.218a2 2 0 0 0-.874.874C3 5.52 3 6.08 3 7.2v9.6c0 1.12 0 1.68.218 2.108a2 2 0 0 0 .874.874C4.52 20 5.08 20 6.2 20h11.6c1.12 0 1.68 0 2.108-.218a2 2 0 0 0 .874-.874C21 18.48 21 17.92 21 16.8V7.2c0-1.12 0-1.68-.218-2.108a2 2 0 0 0-.96-.914M9 4 4 9m11 0 4.822-4.822M15 14.5l-5 3v-6l5 3Z" stroke="currentColor" stroke-width="2" stroke-linejoin="round"/></symbol><symbol viewBox="0 0 24 24" fill="none" id="clock-eight-svgrepo-com" xmlns="http://www.w3.org/2000/svg"><path d="M12 7v5l-2.5 1.5M21 12a9 9 0 1 1-18 0 9 9 0 0 1 18 0Z" stroke="currentColor" stroke-width="2" stroke-linecap="round" stroke-linejoin="round"/></symbol><symbol viewBox="0 0 24 24" fill="none" id="cloud-arrow-down-svgrepo-com" xmlns="http://www.w3.org/2000/svg"><path d="M5.256 16A5.33 5.33 0 0 1 3 11.65C3 9.2 4.8 6.936 7.5 6.5 8.347 4.486 10.351 3 12.69 3c2.994 0 5.442 2.323 5.61 5.25 1.59.695 2.7 2.4 2.7 4.247a4.5 4.5 0 0 1-2 3.745M12 21V11m0 10-3-3m3 3 3-3" stroke="currentColor" stroke-width="2" stroke-linecap="round" stroke-linejoin="round"/></symbol><symbol viewBox="0 0 24 24" fill="none" id="cloud-music-svgrepo-com" xmlns="http://www.w3.org/2000/svg"><path d="m13 14.5 1-.5v-4l-3.571.714V15l-.929.5M8.4 19C5.418 19 3 16.604 3 13.65 3 11.2 4.8 8.936 7.5 8.5 8.347 6.486 10.351 5 12.69 5c2.994 0 5.442 2.323 5.61 5.25 1.59.695 2.7 2.4 2.7 4.247A4.502 4.502 0 0 1 16.5 19H8.4Z" stroke="currentColor" stroke-width="2" stroke-linecap="round" stroke-linejoin="round"/></symbol><symbol viewBox="0 0 24 24" fill="none" id="clouds-svgrepo-com" xmlns="http://www.w3.org/2000/svg"><path d="M5.388 12.702C3.985 12.124 3 10.764 3 9.178 3 7.428 4.3 5.812 6.25 5.5 6.862 4.062 8.31 3 9.998 3c2.163 0 3.93 1.659 4.052 3.75.822.355 1.467 1.081 1.767 1.95M5.388 12.701A4.755 4.755 0 0 0 4 16.032C4 18.776 6.283 21 9.1 21h7.65c2.347 0 4.25-1.872 4.25-4.181 0-1.715-1.049-3.299-2.55-3.944-.104-1.784-1.136-3.327-2.633-4.176M5.388 12.702A5.123 5.123 0 0 1 8.25 11.25C9.05 9.38 10.943 8 13.151 8c.972 0 1.882.255 2.666.7" stroke="currentColor" stroke-width="2" stroke-linecap="round" stroke-linejoin="round"/></symbol><symbol viewBox="0 0 24 24" fill="none" id="cookie-svgrepo-com" xmlns="http://www.w3.org/2000/svg"><path d="M9 16h.01M12 11h.01M7 10h.01M15 16h.01M21 12a9 9 0 1 1-9-9c0 2.761 1.79 5 4 5 0 2.21 2.239 4 5 4Z" stroke="currentColor" stroke-width="2" stroke-linecap="round" stroke-linejoin="round"/></symbol><symbol viewBox="0 0 24 24" fill="none" id="credit-card-alt-svgrepo-com" xmlns="http://www.w3.org/2000/svg"><path d="M3 9h18M6.2 19h11.6c1.12 0 1.68 0 2.108-.218a2 2 0 0 0 .874-.874C21 17.48 21 16.92 21 15.8V8.2c0-1.12 0-1.68-.218-2.108a2 2 0 0 0-.874-.874C19.48 5 18.92 5 17.8 5H6.2c-1.12 0-1.68 0-2.108.218a2 2 0 0 0-.874.874C3 6.52 3 7.08 3 8.2v7.6c0 1.12 0 1.68.218 2.108a2 2 0 0 0 .874.874C4.52 19 5.08 19 6.2 19Z" stroke="currentColor" stroke-width="2" stroke-linecap="round" stroke-linejoin="round"/></symbol><symbol viewBox="0 0 24 24" fill="none" id="crown-svgrepo-com" xmlns="http://www.w3.org/2000/svg"><path d="m4 8 2 12h12l2-12M4 8l1.716 1.373c1.116.893 1.674 1.34 2.237 1.408a2 2 0 0 0 1.396-.35c.463-.326.745-.983 1.307-2.296L12 5M4 8a1 1 0 1 0 0-2 1 1 0 0 0 0 2Zm16 0-1.716 1.373c-1.116.893-1.674 1.34-2.237 1.408a2 2 0 0 1-1.396-.35c-.463-.326-.745-.983-1.307-2.296L12 5m8 3a1 1 0 1 0 0-2 1 1 0 0 0 0 2Zm-8-3a1 1 0 1 0 0-2 1 1 0 0 0 0 2Zm0-1h.01M20 7h.01M4 7h.01" stroke="currentColor" stroke-width="2" stroke-linecap="round" stroke-linejoin="round"/></symbol><symbol viewBox="0 0 24 24" fill="none" id="dialpad-circle-svgrepo-com" xmlns="http://www.w3.org/2000/svg"><path d="M17 5a2 2 0 1 1 4 0 2 2 0 0 1-4 0ZM10 5a2 2 0 1 1 4 0 2 2 0 0 1-4 0ZM3 5a2 2 0 1 1 4 0 2 2 0 0 1-4 0ZM3 12a2 2 0 1 1 4 0 2 2 0 0 1-4 0ZM10 12a2 2 0 1 1 4 0 2 2 0 0 1-4 0ZM10 19a2 2 0 1 1 4 0 2 2 0 0 1-4 0ZM17 12a2 2 0 1 1 4 0 2 2 0 0 1-4 0Z" stroke="currentColor" stroke-width="2" stroke-linecap="round" stroke-linejoin="round"/></symbol><symbol viewBox="0 0 24 24" fill="none" id="droplet-alt-svgrepo-com" xmlns="http://www.w3.org/2000/svg"><path d="M12 21.5a7 7 0 0 0 7-7c0-2-1-3.9-3-5.5s-3.5-4-4-6.5C11.5 5 10 7.4 8 9c-2 1.6-3 3.5-3 5.5a7 7 0 0 0 7 7v0Z" stroke="currentColor" stroke-width="2" stroke-linecap="round" stroke-linejoin="round"/></symbol><symbol viewBox="0 0 24 24" fill="none" id="expand-wide-svgrepo-com" xmlns="http://www.w3.org/2000/svg"><path d="M3 10V5h5m-5 9v5h5m8-14h5v5m0 4v5h-5" stroke="currentColor" stroke-width="2" stroke-linecap="round" stroke-linejoin="round"/></symbol><symbol viewBox="0 0 24 24" fill="none" id="face-frown-svgrepo-com" xmlns="http://www.w3.org/2000/svg"><path d="M15.6 15.6s-1.35-1.8-3.6-1.8-3.6 1.8-3.6 1.8m6.3-6.3h.009M9.3 9.3h.009M21 12a9 9 0 1 1-18 0 9 9 0 0 1 18 0Zm-5.85-2.7a.45.45 0 1 1-.9 0 .45.45 0 0 1 .9 0Zm-5.4 0a.45.45 0 1 1-.9 0 .45.45 0 0 1 .9 0Z" stroke="currentColor" stroke-width="2" stroke-linecap="round" stroke-linejoin="round"/></symbol><symbol viewBox="0 0 24 24" fill="none" id="face-smile-svgrepo-com" xmlns="http://www.w3.org/2000/svg"><path d="M8.4 13.8s1.35 1.8 3.6 1.8 3.6-1.8 3.6-1.8m-.9-4.5h.009M9.3 9.3h.009M21 12a9 9 0 1 1-18 0 9 9 0 0 1 18 0Zm-5.85-2.7a.45.45 0 1 1-.9 0 .45.45 0 0 1 .9 0Zm-5.4 0a.45.45 0 1 1-.9 0 .45.45 0 0 1 .9 0Z" stroke="currentColor" stroke-width="2" stroke-linecap="round" stroke-linejoin="round"/></symbol><symbol viewBox="0 0 24 24" fill="none" id="file-check-svgrepo-com" xmlns="http://www.w3.org/2000/svg"><path d="m9 15 2 2 4-4M13 3H8.2c-1.12 0-1.68 0-2.108.218a2 2 0 0 0-.874.874C5 4.52 5 5.08 5 6.2v11.6c0 1.12 0 1.68.218 2.108a2 2 0 0 0 .874.874C6.52 21 7.08 21 8.2 21h7.6c1.12 0 1.68 0 2.108-.218a2 2 0 0 0 .874-.874C19 19.48 19 18.92 19 17.8V9m-6-6 6 6m-6-6v4.4c0 .56 0 .84.109 1.054a1 1 0 0 0 .437.437C13.76 9 14.04 9 14.6 9H19" stroke="currentColor" stroke-width="2" stroke-linecap="round" stroke-linejoin="round"/></symbol><symbol viewBox="0 0 24 24" fill="none" id="file-exclamation-svgrepo-com" xmlns="http://www.w3.org/2000/svg"><path d="M12.01 14v-3m0 6H12m1-14H8.2c-1.12 0-1.68 0-2.108.218a2 2 0 0 0-.874.874C5 4.52 5 5.08 5 6.2v11.6c0 1.12 0 1.68.218 2.108a2 2 0 0 0 .874.874C6.52 21 7.08 21 8.2 21h7.6c1.12 0 1.68 0 2.108-.218a2 2 0 0 0 .874-.874C19 19.48 19 18.92 19 17.8V9m-6-6 6 6m-6-6v4.4c0 .56 0 .84.109 1.054a1 1 0 0 0 .437.437C13.76 9 14.04 9 14.6 9H19" stroke="currentColor" stroke-width="2" stroke-linecap="round" stroke-linejoin="round"/></symbol><symbol viewBox="0 0 24 24" fill="none" id="fingerprint-alt-svgrepo-com" xmlns="http://www.w3.org/2000/svg"><path d="M13.143 21a8.242 8.242 0 0 1-3.89-7.003 2.749 2.749 0 1 1 5.496 0 2.749 2.749 0 1 0 5.497 0 8.246 8.246 0 0 0-8.244-8.248 8.246 8.246 0 0 0-8.244 8.248c0 1.015.113 2.004.322 2.957m4.41 3.345a10.943 10.943 0 0 1-1.986-6.302 5.497 5.497 0 1 1 10.99 0m.299 5.484c-.1.005-.196.014-.296.014A5.497 5.497 0 0 1 12 13.997m7.672-7.52A10.195 10.195 0 0 0 12 3a10.195 10.195 0 0 0-7.673 3.477" stroke="currentColor" stroke-width="2" stroke-linecap="round" stroke-linejoin="round"/></symbol><symbol viewBox="0 0 24 24" fill="none" id="globe-svgrepo-com" xmlns="http://www.w3.org/2000/svg"><path d="M3 12h18M3 12a9 9 0 0 0 9 9m-9-9a9 9 0 0 1 9-9m9 9a9 9 0 0 1-9 9m9-9a9 9 0 0 0-9-9m0 18C4.756 13.08 8.982 5.7 12 3m0 18c7.244-7.92 3.018-15.3 0-18" stroke="currentColor" stroke-width="2" stroke-linecap="round" stroke-linejoin="round"/></symbol><symbol viewBox="0 0 24 24" fill="none" id="heart-svgrepo-com" xmlns="http://www.w3.org/2000/svg"><path clip-rule="evenodd" d="M12 6c-1.8-2.097-4.806-2.745-7.06-.825-2.255 1.92-2.573 5.131-.802 7.402 1.472 1.888 5.927 5.87 7.387 7.16.163.144.245.216.34.245a.456.456 0 0 0 .258 0c.095-.029.176-.1.34-.245 1.46-1.29 5.915-5.272 7.387-7.16 1.77-2.27 1.492-5.502-.802-7.402C16.755 3.275 13.8 3.903 12 6Z" stroke="currentColor" stroke-width="2" stroke-linecap="round" stroke-linejoin="round"/></symbol><symbol viewBox="0 0 24 24" fill="none" id="hexagon-svgrepo-com" xmlns="http://www.w3.org/2000/svg"><path d="M12.8 21.538c-.291.168-.437.253-.592.285a.998.998 0 0 1-.416 0c-.155-.032-.3-.117-.592-.285l-7.06-4.076c-.292-.168-.437-.252-.543-.37a1.001 1.001 0 0 1-.208-.36c-.05-.15-.05-.32-.05-.656V7.924c0-.337 0-.505.05-.656a1 1 0 0 1 .208-.36c.106-.117.251-.202.543-.37l7.06-4.076c.292-.168.437-.252.592-.285a1 1 0 0 1 .416 0c.155.033.3.117.592.285l7.06 4.076c.292.168.438.253.544.37a1 1 0 0 1 .207.36c.05.151.05.32.05.656v8.152c0 .337 0 .505-.05.656a1 1 0 0 1-.207.36c-.107.118-.252.202-.544.37l-7.06 4.076Z" stroke="currentColor" stroke-width="2" stroke-linejoin="round"/></symbol><symbol viewBox="0 0 24 24" fill="none" id="id-card-svgrepo-com" xmlns="http://www.w3.org/2000/svg"><path d="M18 12h-3m6-4H3m15 8h-3m-2 3c-.378-1.712-2.025-3-4-3-1.967 0-3.61 1.279-3.996 2.981M9 12h.01m-4.006 6.981c.314.019.7.019 1.196.019h11.6c1.12 0 1.68 0 2.108-.218a2 2 0 0 0 .874-.874C21 17.48 21 16.92 21 15.8V8.2c0-1.12 0-1.68-.218-2.108a2 2 0 0 0-.874-.874C19.48 5 18.92 5 17.8 5H6.2c-1.12 0-1.68 0-2.108.218a2 2 0 0 0-.874.874C3 6.52 3 7.08 3 8.2v7.6c0 1.12 0 1.68.218 2.108a2 2 0 0 0 .874.874c.238.122.518.175.912.2ZM10 12a1 1 0 1 1-2 0 1 1 0 0 1 2 0Z" stroke="currentColor" stroke-width="2" stroke-linecap="round" stroke-linejoin="round"/></symbol><symbol viewBox="0 0 24 24" fill="none" id="list-svgrepo-com" xmlns="http://www.w3.org/2000/svg"><path d="M8 6h13M8 12h13M8 18h13M3 6.5h1v-1H3v1Zm0 6h1v-1H3v1Zm0 6h1v-1H3v1Z" stroke="currentColor" stroke-width="2" stroke-linecap="round" stroke-linejoin="round"/></symbol><symbol viewBox="0 0 24 24" fill="none" id="location-pin-alt-1-svgrepo-com" xmlns="http://www.w3.org/2000/svg"><path d="M12 21c3.5-3.6 7-6.824 7-10.8C19 6.224 15.866 3 12 3s-7 3.224-7 7.2 3.5 7.2 7 10.8Z" stroke="currentColor" stroke-width="2" stroke-linecap="round" stroke-linejoin="round"/><path d="M12 12a2 2 0 1 0 0-4 2 2 0 0 0 0 4Z" stroke="currentColor" stroke-width="2" stroke-linecap="round" stroke-linejoin="round"/></symbol><symbol viewBox="0 0 24 24" fill="none" id="lock-alt-svgrepo-com" xmlns="http://www.w3.org/2000/svg"><path d="M12 14.5v2m-5-6.471C7.471 10 8.053 10 8.8 10h6.4c.747 0 1.329 0 1.8.029m-10 0c-.588.036-1.006.117-1.362.298a3 3 0 0 0-1.311 1.311C4 12.28 4 13.12 4 14.8v1.4c0 1.68 0 2.52.327 3.162a3 3 0 0 0 1.311 1.311C6.28 21 7.12 21 8.8 21h6.4c1.68 0 2.52 0 3.162-.327a3 3 0 0 0 1.311-1.311C20 18.72 20 17.88 20 16.2v-1.4c0-1.68 0-2.52-.327-3.162a3 3 0 0 0-1.311-1.311c-.356-.181-.774-.262-1.362-.298m-10 0V8a5 5 0 0 1 10 0v2.029" stroke="currentColor" stroke-width="2" stroke-linecap="round" stroke-linejoin="round"/></symbol><symbol viewBox="0 0 24 24" fill="none" id="map-location-pin-svgrepo-com" xmlns="http://www.w3.org/2000/svg"><path d="M12 6h.01M9 20l-6-3V4l2 1m4 15 6-3m-6 3v-6m6 3 6 3V7l-2-1m-4 11v-3m0-7.8c0 1.767-1.5 3.2-3 4.8-1.5-1.6-3-3.033-3-4.8S10.343 3 12 3s3 1.433 3 3.2Z" stroke="currentColor" stroke-width="2" stroke-linecap="round" stroke-linejoin="round"/></symbol><symbol viewBox="0 0 24 24" fill="none" id="palette-svgrepo-com" xmlns="http://www.w3.org/2000/svg"><path d="M15.5 8.5h.01m-5.01-1h.01m-3.01 4h.01M12 21a9 9 0 1 1 9-9 3 3 0 0 1-3 3h-.6c-.372 0-.557 0-.713.025a2 2 0 0 0-1.662 1.662c-.025.156-.025.341-.025.713v.6a3 3 0 0 1-3 3Zm4-12.5a.5.5 0 1 1-1 0 .5.5 0 0 1 1 0Zm-5-1a.5.5 0 1 1-1 0 .5.5 0 0 1 1 0Zm-3 4a.5.5 0 1 1-1 0 .5.5 0 0 1 1 0Z" stroke="currentColor" stroke-width="2" stroke-linecap="round" stroke-linejoin="round"/></symbol><symbol viewBox="0 0 24 24" fill="none" id="shield-alt-svgrepo-com" xmlns="http://www.w3.org/2000/svg"><path d="M20 6h-1c-2.732 0-5.113-1.065-7-3-1.887 1.935-4.268 3-7 3H4v3.166C4 14.86 7.4 19.644 12 21c4.6-1.356 8-6.14 8-11.834V6Z" stroke="currentColor" stroke-width="2" stroke-linecap="round" stroke-linejoin="round"/></symbol><symbol viewBox="0 0 24 24" fill="none" id="shield-dollar-svgrepo-com" xmlns="http://www.w3.org/2000/svg"><path d="M14 9c-.5-.124-1.315-.129-2-.124m0 0c-.23.001-.09-.008-.4 0-.807.025-1.598.36-1.6 1.311-.002 1.013 1 1.313 2 1.313s2 .231 2 1.312c0 .813-.807 1.169-1.814 1.287-.8 0-1.186.026-2.186-.1m2-5.123V7.5m0 6.6v1.4m8-3.5c0 4.461-5.46 7.694-7.359 8.683-.205.107-.308.16-.45.188a1.134 1.134 0 0 1-.382 0c-.142-.027-.245-.081-.45-.188C9.46 19.693 4 16.461 4 12V8.218c0-.8 0-1.2.13-1.543a2 2 0 0 1 .548-.79c.276-.243.65-.383 1.398-.664l5.362-2.01c.208-.078.312-.117.419-.133a1 1 0 0 1 .286 0c.107.016.21.055.419.133l5.362 2.01c.748.281 1.123.421 1.398.665a2 2 0 0 1 .547.789c.131.343.131.743.131 1.543V12Z" stroke="currentColor" stroke-width="2" stroke-linecap="round" stroke-linejoin="round"/></symbol><symbol viewBox="0 0 24 24" fill="none" id="skull-alt-svgrepo-com" xmlns="http://www.w3.org/2000/svg"><path d="M10 18v3m4-1v1m7-9v1a4 4 0 0 1-4 4v4H7v-4a4 4 0 0 1-4-4v-1a9 9 0 0 1 18 0Zm-11-1.5a2 2 0 1 1-4 0 2 2 0 0 1 4 0Zm8 0a2 2 0 1 1-4 0 2 2 0 0 1 4 0Z" stroke="currentColor" stroke-width="2" stroke-linecap="round" stroke-linejoin="round"/></symbol><symbol viewBox="0 0 24 24" fill="none" id="sliders-svgrepo-com" xmlns="http://www.w3.org/2000/svg"><path d="M12 5.5a2.5 2.5 0 0 1-5 0m5 0a2.5 2.5 0 0 0-5 0m5 0h9m-14 0H3M19 12a2.5 2.5 0 0 1-5 0m5 0a2.5 2.5 0 0 0-5 0m5 0h2m-7 0H3m7 6.5a2.5 2.5 0 0 1-5 0m5 0a2.5 2.5 0 0 0-5 0m5 0h11m-16 0H3" stroke="currentColor" stroke-width="2" stroke-linecap="round" stroke-linejoin="round"/></symbol><symbol viewBox="0 0 24 24" fill="none" id="snow-alt-svgrepo-com" xmlns="http://www.w3.org/2000/svg"><path d="M12 3v18M10 4l2 2 2-2m-4 16 2-2 2 2M4.232 7.5l15.589 9M4.11 9.509l2.46-.659-.66-2.459m12.23 11.218-.659-2.459 2.459-.659m-.12-6.991-15.589 9m13.91-10.109-.66 2.459 2.46.659M4.111 14.49l2.459.659-.66 2.459" stroke="currentColor" stroke-width="2" stroke-linecap="round" stroke-linejoin="round"/></symbol><symbol viewBox="0 0 24 24" fill="none" id="temperature-half-svgrepo-com" xmlns="http://www.w3.org/2000/svg"><path d="M12 16a1 1 0 1 0 0 2 1 1 0 0 0 0-2Zm0 0 .007-5.5M12 17l.007.007M16 17a4 4 0 1 1-7-2.646V6a3 3 0 1 1 6 0v8.354c.622.705 1 1.631 1 2.646Z" stroke="currentColor" stroke-width="2" stroke-linecap="round" stroke-linejoin="round"/></symbol><symbol viewBox="0 0 24 24" fill="none" id="tenge-sign-svgrepo-com" xmlns="http://www.w3.org/2000/svg"><path d="M12 19V9M6 9h12M6 5h12" stroke="currentColor" stroke-width="2" stroke-linecap="round" stroke-linejoin="round"/></symbol><symbol viewBox="0 0 24 24" fill="none" id="text-svgrepo-com" xmlns="http://www.w3.org/2000/svg"><path d="M12 3v18m-3 0h6m4-15V3H5v3" stroke="currentColor" stroke-width="2" stroke-linecap="round" stroke-linejoin="round"/></symbol><symbol viewBox="0 0 24 24" fill="none" id="umbrella-svgrepo-com" xmlns="http://www.w3.org/2000/svg"><path d="M8 19a2 2 0 1 0 4 0v-8m0 0c1.126 0 2.164.372 3 1 .836-.628 1.874-1 3-1s2.164.372 3 1a9 9 0 1 0-18 0c.836-.628 1.874-1 3-1s2.164.372 3 1c.836-.628 1.874-1 3-1Z" stroke="currentColor" stroke-width="2" stroke-linecap="round" stroke-linejoin="round"/></symbol><symbol viewBox="0 0 24 24" fill="none" id="user-check-alt-1-svgrepo-com" xmlns="http://www.w3.org/2000/svg"><path d="M14 19.286 15.8 21l4.2-4M4 21a7 7 0 0 1 11-5.745M15 7a4 4 0 1 1-8 0 4 4 0 0 1 8 0Z" stroke="currentColor" stroke-width="2" stroke-linecap="round" stroke-linejoin="round"/></symbol><symbol viewBox="0 0 24 24" fill="none" id="video-svgrepo-com" xmlns="http://www.w3.org/2000/svg"><path d="m16 10 2.577-1.546c.793-.476 1.19-.714 1.516-.683a1 1 0 0 1 .713.403c.194.264.194.727.194 1.652v4.348c0 .925 0 1.388-.194 1.652a1 1 0 0 1-.713.404c-.326.03-.723-.208-1.516-.684L16 14m-9.8 4h6.6c1.12 0 1.68 0 2.108-.218a2 2 0 0 0 .874-.874C16 16.48 16 15.92 16 14.8V9.2c0-1.12 0-1.68-.218-2.108a2 2 0 0 0-.874-.874C14.48 6 13.92 6 12.8 6H6.2c-1.12 0-1.68 0-2.108.218a2 2 0 0 0-.874.874C3 7.52 3 8.08 3 9.2v5.6c0 1.12 0 1.68.218 2.108a2 2 0 0 0 .874.874C4.52 18 5.08 18 6.2 18Z" stroke="currentColor" stroke-width="2" stroke-linecap="round" stroke-linejoin="round"/></symbol></svg>